<svg id="visual" viewBox="0 0 1920 1080" width="1920" height="1080" xmlns="http://www.w3.org/2000/svg" xmlns:xlink="http://www.w3.org/1999/xlink" version="1.1"><g stroke-width="1" stroke-linejoin="bevel"><path d="M884.3 503L841.3 320L666 386Z" fill="#007e7f" stroke="#007e7f"></path><path d="M666 386L676 583L884.3 503Z" fill="#0ca29c" stroke="#0ca29c"></path><path d="M1038.7 184L872.3 213L841.3 320Z" fill="#004b51" stroke="#004b51"></path><path d="M841.3 320L673 136L666 386Z" fill="#007e7f" stroke="#007e7f"></path><path d="M676 583L829.3 687L884.3 503Z" fill="#0ca29c" stroke="#0ca29c"></path><path d="M676 583L689 718L829.3 687Z" fill="#023b42" stroke="#023b42"></path><path d="M872.3 213L673 136L841.3 320Z" fill="#005c61" stroke="#005c61"></path><path d="M1116.7 587L1101.7 372L884.3 503Z" fill="#03908e" stroke="#03908e"></path><path d="M884.3 503L1101.7 372L841.3 320Z" fill="#004b51" stroke="#004b51"></path><path d="M1101.7 372L1038.7 184L841.3 320Z" fill="#006d70" stroke="#006d70"></path><path d="M872.3 213L808.3 0L673 136Z" fill="#18b4aa" stroke="#18b4aa"></path><path d="M403.7 330L455.7 584L666 386Z" fill="#007e7f" stroke="#007e7f"></path><path d="M666 386L455.7 584L676 583Z" fill="#004b51" stroke="#004b51"></path><path d="M676 583L452.7 731L689 718Z" fill="#18b4aa" stroke="#18b4aa"></path><path d="M829.3 687L1116.7 587L884.3 503Z" fill="#006d70" stroke="#006d70"></path><path d="M437.7 184L403.7 330L666 386Z" fill="#24c7b8" stroke="#24c7b8"></path><path d="M673 136L437.7 184L666 386Z" fill="#023b42" stroke="#023b42"></path><path d="M1033.7 0L808.3 0L872.3 213Z" fill="#18b4aa" stroke="#18b4aa"></path><path d="M673 136L598 0L437.7 184Z" fill="#03908e" stroke="#03908e"></path><path d="M829.3 687L1101.7 728L1116.7 587Z" fill="#0ca29c" stroke="#0ca29c"></path><path d="M1053.7 906L1101.7 728L829.3 687Z" fill="#24c7b8" stroke="#24c7b8"></path><path d="M455.7 584L452.7 731L676 583Z" fill="#03908e" stroke="#03908e"></path><path d="M689 718L858.3 919L829.3 687Z" fill="#004b51" stroke="#004b51"></path><path d="M212.3 682L452.7 731L455.7 584Z" fill="#18b4aa" stroke="#18b4aa"></path><path d="M808.3 0L598 0L673 136Z" fill="#032c32" stroke="#032c32"></path><path d="M685 950L858.3 919L689 718Z" fill="#032c32" stroke="#032c32"></path><path d="M1233 0L1033.7 0L1038.7 184Z" fill="#007e7f" stroke="#007e7f"></path><path d="M1038.7 184L1033.7 0L872.3 213Z" fill="#007e7f" stroke="#007e7f"></path><path d="M452.7 731L685 950L689 718Z" fill="#32dac5" stroke="#32dac5"></path><path d="M1116.7 587L1315 387L1101.7 372Z" fill="#03908e" stroke="#03908e"></path><path d="M1101.7 372L1266 136L1038.7 184Z" fill="#18b4aa" stroke="#18b4aa"></path><path d="M1312 574L1315 387L1116.7 587Z" fill="#005c61" stroke="#005c61"></path><path d="M858.3 919L1053.7 906L829.3 687Z" fill="#005c61" stroke="#005c61"></path><path d="M1303 748L1312 574L1116.7 587Z" fill="#0ca29c" stroke="#0ca29c"></path><path d="M1083.7 1080L1053.7 906L858.3 919Z" fill="#023b42" stroke="#023b42"></path><path d="M1303 748L1116.7 587L1101.7 728Z" fill="#006d70" stroke="#006d70"></path><path d="M598 0L429.7 0L437.7 184Z" fill="#18b4aa" stroke="#18b4aa"></path><path d="M172.3 181L198.3 332L403.7 330Z" fill="#0ca29c" stroke="#0ca29c"></path><path d="M1315 387L1266 136L1101.7 372Z" fill="#18b4aa" stroke="#18b4aa"></path><path d="M172.3 181L403.7 330L437.7 184Z" fill="#007e7f" stroke="#007e7f"></path><path d="M403.7 330L177.3 567L455.7 584Z" fill="#32dac5" stroke="#32dac5"></path><path d="M1241 853L1303 748L1101.7 728Z" fill="#004b51" stroke="#004b51"></path><path d="M198.3 332L177.3 567L403.7 330Z" fill="#007e7f" stroke="#007e7f"></path><path d="M452.7 731L401.7 940L685 950Z" fill="#24c7b8" stroke="#24c7b8"></path><path d="M1266 136L1233 0L1038.7 184Z" fill="#32dac5" stroke="#32dac5"></path><path d="M1053.7 906L1241 853L1101.7 728Z" fill="#006d70" stroke="#006d70"></path><path d="M177.3 567L212.3 682L455.7 584Z" fill="#0ca29c" stroke="#0ca29c"></path><path d="M212.3 682L401.7 940L452.7 731Z" fill="#24c7b8" stroke="#24c7b8"></path><path d="M662 1080L829.3 1080L685 950Z" fill="#005c61" stroke="#005c61"></path><path d="M685 950L829.3 1080L858.3 919Z" fill="#24c7b8" stroke="#24c7b8"></path><path d="M1053.7 906L1083.7 1080L1241 853Z" fill="#004b51" stroke="#004b51"></path><path d="M261.3 0L172.3 181L437.7 184Z" fill="#007e7f" stroke="#007e7f"></path><path d="M198.3 332L0 337L177.3 567Z" fill="#023b42" stroke="#023b42"></path><path d="M401.7 940L662 1080L685 950Z" fill="#006d70" stroke="#006d70"></path><path d="M429.7 0L261.3 0L437.7 184Z" fill="#03908e" stroke="#03908e"></path><path d="M1312 574L1470.3 570L1315 387Z" fill="#006d70" stroke="#006d70"></path><path d="M1315 387L1506.3 229L1266 136Z" fill="#24c7b8" stroke="#24c7b8"></path><path d="M1266 136L1468.3 0L1233 0Z" fill="#24c7b8" stroke="#24c7b8"></path><path d="M1448.3 751L1470.3 570L1312 574Z" fill="#004b51" stroke="#004b51"></path><path d="M1448.3 751L1312 574L1303 748Z" fill="#18b4aa" stroke="#18b4aa"></path><path d="M829.3 1080L1083.7 1080L858.3 919Z" fill="#023b42" stroke="#023b42"></path><path d="M1466.3 854L1448.3 751L1303 748Z" fill="#18b4aa" stroke="#18b4aa"></path><path d="M1466.3 854L1303 748L1241 853Z" fill="#023b42" stroke="#023b42"></path><path d="M201.3 1080L419.7 1080L401.7 940Z" fill="#032c32" stroke="#032c32"></path><path d="M401.7 940L419.7 1080L662 1080Z" fill="#006d70" stroke="#006d70"></path><path d="M1660.7 385L1528.3 409L1737.7 546Z" fill="#18b4aa" stroke="#18b4aa"></path><path d="M1470.3 570L1528.3 409L1315 387Z" fill="#023b42" stroke="#023b42"></path><path d="M1528.3 409L1506.3 229L1315 387Z" fill="#005c61" stroke="#005c61"></path><path d="M212.3 682L190.3 938L401.7 940Z" fill="#004b51" stroke="#004b51"></path><path d="M0 898L190.3 938L212.3 682Z" fill="#03908e" stroke="#03908e"></path><path d="M0 182L0 337L172.3 181Z" fill="#032c32" stroke="#032c32"></path><path d="M172.3 181L0 337L198.3 332Z" fill="#023b42" stroke="#023b42"></path><path d="M177.3 567L0 689L212.3 682Z" fill="#032c32" stroke="#032c32"></path><path d="M0 337L0 588L177.3 567Z" fill="#032c32" stroke="#032c32"></path><path d="M1287 1080L1466.3 854L1241 853Z" fill="#32dac5" stroke="#32dac5"></path><path d="M1737.7 546L1528.3 409L1470.3 570Z" fill="#032c32" stroke="#032c32"></path><path d="M1506.3 229L1468.3 0L1266 136Z" fill="#18b4aa" stroke="#18b4aa"></path><path d="M0 0L0 182L172.3 181Z" fill="#03908e" stroke="#03908e"></path><path d="M1083.7 1080L1287 1080L1241 853Z" fill="#24c7b8" stroke="#24c7b8"></path><path d="M0 588L0 689L177.3 567Z" fill="#007e7f" stroke="#007e7f"></path><path d="M0 1080L201.3 1080L190.3 938Z" fill="#023b42" stroke="#023b42"></path><path d="M190.3 938L201.3 1080L401.7 940Z" fill="#004b51" stroke="#004b51"></path><path d="M1528.3 409L1660.7 385L1506.3 229Z" fill="#03908e" stroke="#03908e"></path><path d="M1506.3 229L1672.7 151L1468.3 0Z" fill="#007e7f" stroke="#007e7f"></path><path d="M1737.7 546L1470.3 570L1739.7 728Z" fill="#007e7f" stroke="#007e7f"></path><path d="M261.3 0L0 0L172.3 181Z" fill="#007e7f" stroke="#007e7f"></path><path d="M0 689L0 898L212.3 682Z" fill="#006d70" stroke="#006d70"></path><path d="M1660.7 385L1672.7 151L1506.3 229Z" fill="#32dac5" stroke="#32dac5"></path><path d="M1739.7 728L1470.3 570L1448.3 751Z" fill="#18b4aa" stroke="#18b4aa"></path><path d="M1660.7 385L1920 323L1672.7 151Z" fill="#006d70" stroke="#006d70"></path><path d="M1739.7 728L1448.3 751L1466.3 854Z" fill="#005c61" stroke="#005c61"></path><path d="M1287 1080L1528.3 1080L1466.3 854Z" fill="#0ca29c" stroke="#0ca29c"></path><path d="M1729.7 876L1739.7 728L1466.3 854Z" fill="#0ca29c" stroke="#0ca29c"></path><path d="M0 898L0 1080L190.3 938Z" fill="#005c61" stroke="#005c61"></path><path d="M1528.3 1080L1729.7 876L1466.3 854Z" fill="#032c32" stroke="#032c32"></path><path d="M1920 132L1756.7 0L1672.7 151Z" fill="#032c32" stroke="#032c32"></path><path d="M1672.7 151L1756.7 0L1468.3 0Z" fill="#023b42" stroke="#023b42"></path><path d="M1920 323L1660.7 385L1737.7 546Z" fill="#023b42" stroke="#023b42"></path><path d="M1920 751L1920 527L1739.7 728Z" fill="#004b51" stroke="#004b51"></path><path d="M1739.7 728L1920 527L1737.7 546Z" fill="#005c61" stroke="#005c61"></path><path d="M1920 527L1920 323L1737.7 546Z" fill="#023b42" stroke="#023b42"></path><path d="M1528.3 1080L1731.7 1080L1729.7 876Z" fill="#006d70" stroke="#006d70"></path><path d="M1920 860L1920 751L1739.7 728Z" fill="#32dac5" stroke="#32dac5"></path><path d="M1920 323L1920 132L1672.7 151Z" fill="#03908e" stroke="#03908e"></path><path d="M1920 860L1739.7 728L1729.7 876Z" fill="#24c7b8" stroke="#24c7b8"></path><path d="M1920 1080L1920 860L1729.7 876Z" fill="#006d70" stroke="#006d70"></path><path d="M1920 132L1920 0L1756.7 0Z" fill="#18b4aa" stroke="#18b4aa"></path><path d="M1731.7 1080L1920 1080L1729.7 876Z" fill="#18b4aa" stroke="#18b4aa"></path></g></svg>